<svg width="512" height="512" viewBox="0 0 512 512" fill="none" xmlns="http://www.w3.org/2000/svg">
  <rect width="512" height="512" rx="64" fill="#3b82f6"/>
  <path d="M128 256C128 213.878 160.878 181 203 181C245.122 181 278 213.878 278 256C278 298.122 245.122 331 203 331C160.878 331 128 298.122 128 256Z" fill="white"/>
  <path d="M256 64H340C364.853 64 384 83.1465 384 108V121C403.7 134.7 416 154.4 416 176C416 225.8 375.8 266 326 266H186C136.2 266 96 225.8 96 176C96 154.4 108.3 134.7 128 121V108C128 83.1465 147.147 64 172 64H256Z" fill="white"/>
  <path d="M256 384H364C380.569 384 394 370.569 394 354V336C394 302.274 366.726 275 333 275H179C145.274 275 118 302.274 118 336V354C118 370.569 131.431 384 148 384H200" stroke="white" stroke-width="16" stroke-linecap="round"/>
</svg>